<svg width="99" height="102" viewBox="0 0 99 102" fill="none" xmlns="http://www.w3.org/2000/svg">
<path d="M95.0812 101.175C94.4798 101.175 93.9042 101.091 93.3542 100.922C92.8042 100.746 92.3678 100.523 92.0452 100.251L92.5402 99.1404C92.8482 99.3824 93.2295 99.584 93.6842 99.7454C94.1388 99.9067 94.6045 99.9874 95.0812 99.9874C95.4845 99.9874 95.8108 99.9434 96.0602 99.8554C96.3095 99.7674 96.4928 99.65 96.6102 99.5034C96.7275 99.3494 96.7862 99.177 96.7862 98.9864C96.7862 98.7517 96.7018 98.5647 96.5332 98.4254C96.3645 98.2787 96.1445 98.165 95.8732 98.0844C95.6092 97.9964 95.3122 97.9157 94.9822 97.8424C94.6595 97.769 94.3332 97.6847 94.0032 97.5894C93.6805 97.4867 93.3835 97.3584 93.1122 97.2044C92.8482 97.043 92.6318 96.8304 92.4632 96.5664C92.2945 96.3024 92.2102 95.965 92.2102 95.5544C92.2102 95.1364 92.3202 94.755 92.5402 94.4104C92.7675 94.0584 93.1085 93.7797 93.5632 93.5744C94.0252 93.3617 94.6082 93.2554 95.3122 93.2554C95.7742 93.2554 96.2325 93.314 96.6872 93.4314C97.1418 93.5487 97.5378 93.7174 97.8752 93.9374L97.4242 95.0484C97.0795 94.843 96.7238 94.6927 96.3572 94.5974C95.9905 94.4947 95.6385 94.4434 95.3012 94.4434C94.9052 94.4434 94.5825 94.491 94.3332 94.5864C94.0912 94.6817 93.9115 94.8064 93.7942 94.9604C93.6842 95.1144 93.6292 95.2904 93.6292 95.4884C93.6292 95.723 93.7098 95.9137 93.8712 96.0604C94.0398 96.1997 94.2562 96.3097 94.5202 96.3904C94.7915 96.471 95.0922 96.5517 95.4222 96.6324C95.7522 96.7057 96.0785 96.79 96.4012 96.8854C96.7312 96.9807 97.0282 97.1054 97.2922 97.2594C97.5635 97.4134 97.7798 97.6224 97.9412 97.8864C98.1098 98.1504 98.1942 98.484 98.1942 98.8874C98.1942 99.298 98.0805 99.6794 97.8532 100.031C97.6332 100.376 97.2922 100.655 96.8302 100.867C96.3682 101.073 95.7852 101.175 95.0812 101.175Z" fill="#FFFFFF"/>
<path d="M81.7483 101.065V93.3654H82.9253L86.2913 98.9864H85.6753L88.9863 93.3654H90.1633L90.1743 101.065H88.8213L88.8103 95.4884H89.0963L86.2803 100.185H85.6423L82.7823 95.4884H83.1123V101.065H81.7483Z" fill="#FFFFFF"/>
<path d="M75.259 96.5664H79.087V97.7434H75.259V96.5664ZM75.369 99.8664H79.714V101.065H73.939V93.3654H79.56V94.5644H75.369V99.8664Z" fill="#FFFFFF"/>
<path d="M68.4438 101.065V94.5754H65.8918V93.3654H72.4258V94.5754H69.8738V101.065H68.4438Z" fill="#FFFFFF"/>
<path d="M62.0184 101.175C61.4171 101.175 60.8414 101.091 60.2914 100.922C59.7414 100.746 59.3051 100.523 58.9824 100.251L59.4774 99.1404C59.7854 99.3824 60.1668 99.584 60.6214 99.7454C61.0761 99.9067 61.5418 99.9874 62.0184 99.9874C62.4218 99.9874 62.7481 99.9434 62.9974 99.8554C63.2468 99.7674 63.4301 99.65 63.5474 99.5034C63.6648 99.3494 63.7234 99.177 63.7234 98.9864C63.7234 98.7517 63.6391 98.5647 63.4704 98.4254C63.3018 98.2787 63.0818 98.165 62.8104 98.0844C62.5464 97.9964 62.2494 97.9157 61.9194 97.8424C61.5968 97.769 61.2704 97.6847 60.9404 97.5894C60.6178 97.4867 60.3208 97.3584 60.0494 97.2044C59.7854 97.043 59.5691 96.8304 59.4004 96.5664C59.2318 96.3024 59.1474 95.965 59.1474 95.5544C59.1474 95.1364 59.2574 94.755 59.4774 94.4104C59.7048 94.0584 60.0458 93.7797 60.5004 93.5744C60.9624 93.3617 61.5454 93.2554 62.2494 93.2554C62.7114 93.2554 63.1698 93.314 63.6244 93.4314C64.0791 93.5487 64.4751 93.7174 64.8124 93.9374L64.3614 95.0484C64.0168 94.843 63.6611 94.6927 63.2944 94.5974C62.9278 94.4947 62.5758 94.4434 62.2384 94.4434C61.8424 94.4434 61.5198 94.491 61.2704 94.5864C61.0284 94.6817 60.8488 94.8064 60.7314 94.9604C60.6214 95.1144 60.5664 95.2904 60.5664 95.4884C60.5664 95.723 60.6471 95.9137 60.8084 96.0604C60.9771 96.1997 61.1934 96.3097 61.4574 96.3904C61.7288 96.471 62.0294 96.5517 62.3594 96.6324C62.6894 96.7057 63.0158 96.79 63.3384 96.8854C63.6684 96.9807 63.9654 97.1054 64.2294 97.2594C64.5008 97.4134 64.7171 97.6224 64.8784 97.8864C65.0471 98.1504 65.1314 98.484 65.1314 98.8874C65.1314 99.298 65.0178 99.6794 64.7904 100.031C64.5704 100.376 64.2294 100.655 63.7674 100.867C63.3054 101.073 62.7224 101.175 62.0184 101.175Z" fill="#FFFFFF"/>
<path d="M53.972 101.065V98.0184L54.291 98.8984L50.947 93.3654H52.476L55.16 97.8204H54.302L57.008 93.3654H58.416L55.072 98.8984L55.402 98.0184V101.065H53.972Z" fill="#FFFFFF"/>
<path d="M47.2701 101.175C46.6688 101.175 46.0931 101.091 45.5431 100.922C44.9931 100.746 44.5568 100.523 44.2341 100.251L44.7291 99.1404C45.0371 99.3824 45.4185 99.584 45.8731 99.7454C46.3278 99.9067 46.7935 99.9874 47.2701 99.9874C47.6735 99.9874 47.9998 99.9434 48.2491 99.8554C48.4985 99.7674 48.6818 99.65 48.7991 99.5034C48.9165 99.3494 48.9751 99.177 48.9751 98.9864C48.9751 98.7517 48.8908 98.5647 48.7221 98.4254C48.5535 98.2787 48.3335 98.165 48.0621 98.0844C47.7981 97.9964 47.5011 97.9157 47.1711 97.8424C46.8485 97.769 46.5221 97.6847 46.1921 97.5894C45.8695 97.4867 45.5725 97.3584 45.3011 97.2044C45.0371 97.043 44.8208 96.8304 44.6521 96.5664C44.4835 96.3024 44.3991 95.965 44.3991 95.5544C44.3991 95.1364 44.5091 94.755 44.7291 94.4104C44.9565 94.0584 45.2975 93.7797 45.7521 93.5744C46.2141 93.3617 46.7971 93.2554 47.5011 93.2554C47.9631 93.2554 48.4215 93.314 48.8761 93.4314C49.3308 93.5487 49.7268 93.7174 50.0641 93.9374L49.6131 95.0484C49.2685 94.843 48.9128 94.6927 48.5461 94.5974C48.1795 94.4947 47.8275 94.4434 47.4901 94.4434C47.0941 94.4434 46.7715 94.491 46.5221 94.5864C46.2801 94.6817 46.1005 94.8064 45.9831 94.9604C45.8731 95.1144 45.8181 95.2904 45.8181 95.4884C45.8181 95.723 45.8988 95.9137 46.0601 96.0604C46.2288 96.1997 46.4451 96.3097 46.7091 96.3904C46.9805 96.471 47.2811 96.5517 47.6111 96.6324C47.9411 96.7057 48.2675 96.79 48.5901 96.8854C48.9201 96.9807 49.2171 97.1054 49.4811 97.2594C49.7525 97.4134 49.9688 97.6224 50.1301 97.8864C50.2988 98.1504 50.3831 98.484 50.3831 98.8874C50.3831 99.298 50.2695 99.6794 50.0421 100.031C49.8221 100.376 49.4811 100.655 49.0191 100.867C48.5571 101.073 47.9741 101.175 47.2701 101.175Z" fill="#FFFFFF"/>
<path d="M34.914 96.5664H38.742V97.7434H34.914V96.5664ZM35.024 99.8664H39.369V101.065H33.594V93.3654H39.215V94.5644H35.024V99.8664Z" fill="#FFFFFF"/>
<path d="M28.2539 101.175C27.6526 101.175 27.0989 101.08 26.5929 100.889C26.0943 100.691 25.6579 100.416 25.2839 100.064C24.9099 99.705 24.6203 99.2834 24.4149 98.7994C24.2096 98.3154 24.1069 97.7874 24.1069 97.2154C24.1069 96.6434 24.2096 96.1154 24.4149 95.6314C24.6203 95.1474 24.9099 94.7294 25.2839 94.3774C25.6653 94.018 26.1089 93.743 26.6149 93.5524C27.1209 93.3544 27.6746 93.2554 28.2759 93.2554C28.9286 93.2554 29.5153 93.3617 30.0359 93.5744C30.5639 93.787 31.0076 94.0987 31.3669 94.5094L30.4649 95.3894C30.1643 95.0887 29.8379 94.8687 29.4859 94.7294C29.1413 94.5827 28.7599 94.5094 28.3419 94.5094C27.9386 94.5094 27.5646 94.5754 27.2199 94.7074C26.8753 94.8394 26.5783 95.0264 26.3289 95.2684C26.0796 95.5104 25.8853 95.7964 25.7459 96.1264C25.6139 96.4564 25.5479 96.8194 25.5479 97.2154C25.5479 97.604 25.6139 97.9634 25.7459 98.2934C25.8853 98.6234 26.0796 98.913 26.3289 99.1624C26.5783 99.4044 26.8716 99.5914 27.2089 99.7234C27.5463 99.8554 27.9203 99.9214 28.3309 99.9214C28.7123 99.9214 29.0789 99.8627 29.4309 99.7454C29.7903 99.6207 30.1313 99.4154 30.4539 99.1294L31.2679 100.196C30.8646 100.519 30.3953 100.765 29.8599 100.933C29.3319 101.095 28.7966 101.175 28.2539 101.175ZM29.9149 100.009V97.1274H31.2679V100.196L29.9149 100.009Z" fill="#FFFFFF"/>
<path d="M16.171 101.065V93.3654H19.339C20.021 93.3654 20.604 93.4754 21.088 93.6954C21.5794 93.9154 21.957 94.2307 22.221 94.6414C22.485 95.052 22.617 95.5397 22.617 96.1044C22.617 96.669 22.485 97.1567 22.221 97.5674C21.957 97.9707 21.5794 98.2824 21.088 98.5024C20.604 98.715 20.021 98.8214 19.339 98.8214H16.963L17.601 98.1724V101.065H16.171ZM21.209 101.065L19.262 98.2714H20.791L22.749 101.065H21.209ZM17.601 98.3264L16.963 97.6444H19.273C19.9037 97.6444 20.3767 97.5087 20.692 97.2374C21.0147 96.966 21.176 96.5884 21.176 96.1044C21.176 95.613 21.0147 95.2354 20.692 94.9714C20.3767 94.7074 19.9037 94.5754 19.273 94.5754H16.963L17.601 93.8714V98.3264Z" fill="#FFFFFF"/>
<path d="M6.40283 101.065L9.86783 93.3654H11.2758L14.7518 101.065H13.2558L10.2748 94.1244H10.8468L7.87683 101.065H6.40283ZM7.99783 99.2834L8.38283 98.1614H12.5408L12.9258 99.2834H7.99783Z" fill="#FFFFFF"/>
<path d="M0.456055 101.065V93.3654H1.88605V99.8554H5.91206V101.065H0.456055Z" fill="#FFFFFF"/>
<path d="M2.47346 83.2304C1.84022 83.0595 1.5 82.6705 1.5 82.1172C1.5 81.6174 1.81205 80.9982 3.73535 77.6819C4.4723 76.4112 6.42952 73.0219 8.08474 70.1501C9.73996 67.2783 14.5144 59.0026 18.6947 51.7596C26.633 38.0051 27.3873 36.6986 29.6593 32.7684C30.4233 31.4469 31.4204 29.721 31.8752 28.9332C32.3299 28.1454 33.6393 25.8789 34.785 23.8966C35.9306 21.9143 39.2088 16.2378 42.0698 11.282C44.9308 6.32629 47.4478 1.99741 47.6631 1.66228C48.2808 0.700721 48.9356 0.427436 49.6153 0.847519C49.9946 1.08197 50.2068 1.38683 51.3138 3.28817C52.568 5.44227 52.7352 5.83246 52.74 6.61509C52.7446 7.38659 52.5578 7.81869 51.2215 10.1268C50.7506 10.9401 49.8426 12.5204 49.2037 13.6386C48.5647 14.7568 46.9407 17.5847 45.5946 19.9228C44.2486 22.2609 42.8488 24.6937 42.4839 25.329C42.119 25.9644 40.9616 27.9709 39.9118 29.7879C37.9601 33.1664 35.1718 37.9991 32.9404 41.8712C32.252 43.0657 31.1722 44.9371 30.5407 46.0299C29.9092 47.1227 29.0685 48.5782 28.6725 49.2644C28.2765 49.9506 27.4122 51.4477 26.7518 52.5913C17.4819 68.644 14.7425 73.4122 14.5565 73.8186C14.106 74.8025 14.2094 75.3348 14.9251 75.7172L15.316 75.926L45.7204 76.0184L46.1625 76.2225C46.4995 76.3782 46.6385 76.5079 46.7475 76.7689C47.005 77.385 46.8324 77.8185 45.2616 80.5005C44.2809 82.1749 43.7657 82.7816 43.0488 83.1061L42.5783 83.3192L22.7554 83.3367C6.43679 83.3511 2.85129 83.3323 2.47346 83.2304Z" fill="url(#paint0_linear_60_23)"/>
<path d="M51.7018 83.2304C51.1248 83.0493 50.8792 82.8581 50.76 82.4969C50.5675 81.9136 50.7257 81.5248 52.165 79.042C53.4917 76.7535 53.9535 76.2932 55.1434 76.0732C55.5212 76.0034 59.7829 75.9724 69.009 75.9724C83.7349 75.9724 83.0131 76.001 83.5209 75.3975C83.7342 75.1441 83.7629 75.0405 83.726 74.6572C83.6747 74.1231 83.4041 73.5771 81.9507 71.0744C80.7694 69.0403 79.9206 67.5706 76.2667 61.2323C72.8611 55.3247 72.8382 55.2867 72.3607 54.7608C72.0945 54.4676 71.7332 54.1933 71.4366 54.0592L70.9495 53.8391L52.559 53.7929C34.9795 53.7487 34.1515 53.7392 33.7813 53.5771C33.1441 53.2981 32.9324 52.7976 33.1482 52.0804C33.2879 51.6161 34.1598 50.0597 36.253 46.5383C37.346 44.6994 40.5281 39.2078 45.0081 31.4286C45.696 30.2341 46.5377 28.7786 46.8786 28.1941C47.2195 27.6095 48.9441 24.6153 50.7111 21.5402C54.556 14.849 54.7659 14.4899 55.1303 13.9815C55.8606 12.9624 56.7045 12.9889 57.4641 14.0546C57.6271 14.2834 59.3913 17.2984 61.3845 20.7547C65.0916 27.183 66.3435 29.3488 68.0883 32.3527C69.7671 35.2431 69.9593 35.7896 69.5016 36.3715C69.1115 36.8674 68.8436 36.9177 66.3923 36.9556C63.3254 37.003 62.6777 36.876 61.9292 36.0802C61.4607 35.5821 61.2349 35.2231 59.5851 32.3527C57.3152 28.4037 57.0182 28.0092 56.3146 28.0092C55.8669 28.0092 55.5139 28.2347 55.1188 28.773C54.7024 29.3404 46.4066 43.6878 46.1181 44.3395C45.7344 45.2065 45.9055 45.8924 46.5824 46.1995C46.8929 46.3404 48.1204 46.3574 61.015 46.3997C74.599 46.4443 75.1232 46.4523 75.5241 46.6216C76.1452 46.8839 76.4907 47.174 76.9415 47.8116C77.1652 48.1278 78.3761 50.1749 79.6325 52.3605C80.8888 54.5461 82.0752 56.6046 82.2689 56.935C82.4626 57.2654 82.9928 58.1803 83.447 58.9681C85.3022 62.1857 86.502 64.2629 87.2636 65.5757C87.7059 66.3382 88.8691 68.3551 89.8485 70.0578C91.8718 73.5756 93.5701 76.5141 95.0559 79.0683C96.1882 81.0147 96.4967 81.6784 96.5 82.1748C96.5027 82.5833 96.2395 82.942 95.7774 83.1599C95.4607 83.3093 94.0732 83.3204 73.7682 83.3369C55.8613 83.3513 52.0283 83.3328 51.7018 83.2304Z" fill="url(#paint1_linear_60_23)"/>
<defs>
<linearGradient id="paint0_linear_60_23" x1="8.46885" y1="78.7149" x2="61.9769" y2="22.4276" gradientUnits="userSpaceOnUse">
<stop stop-color="#1E2F97"/>
<stop offset="1" stop-color="#3FC0D1"/>
</linearGradient>
<linearGradient id="paint1_linear_60_23" x1="8.46885" y1="78.7149" x2="61.9769" y2="22.4276" gradientUnits="userSpaceOnUse">
<stop stop-color="#1E2F97"/>
<stop offset="1" stop-color="#3FC0D1"/>
</linearGradient>
</defs>
</svg>
